<svg xmlns="http://www.w3.org/2000/svg" width="118" height="119" viewBox="0 0 118 119">
  <defs>
    <style>
      .cls-1 {
        fill-rule: evenodd;
      }
    </style>
  </defs>
  <path id="atendimento-humano-icon" class="cls-1" d="M810.794,1869.61a6.246,6.246,0,0,0-10.837,1.22l-1.729,4.06c-1.266-20.47-13-30.74-18.253-34.34a14.961,14.961,0,0,0,3.408-16.27,14.7,14.7,0,0,0-27.352.03,14.967,14.967,0,0,0,3.451,16.27,38.32,38.32,0,0,0-6.425,5.54,38.761,38.761,0,0,0-6.493-5.59,14.957,14.957,0,0,0,3.381-16.28,14.706,14.706,0,0,0-27.356.09,14.96,14.96,0,0,0,3.487,16.26c-5.317,3.66-17.02,14-18.2,34.56l-1.84-4.33a6.244,6.244,0,0,0-10.839-1.23,6.382,6.382,0,0,0-.631,6.34l7.706,17.09a21.112,21.112,0,0,0,4.27,6.22l12.121,12.22a3.948,3.948,0,0,0-1.066,2.7v15.86a3.96,3.96,0,0,0,3.932,3.97h21.633a3.962,3.962,0,0,0,3.933-3.97v-13.88h11.8v13.88a3.962,3.962,0,0,0,3.933,3.97h21.631a3.963,3.963,0,0,0,3.934-3.97v-15.86a3.953,3.953,0,0,0-1.066-2.7l12.12-12.22a21.112,21.112,0,0,0,4.27-6.22l7.707-17.09a6.367,6.367,0,0,0-.633-6.33h0Zm-51.9-39.72a10.816,10.816,0,1,1,10.815,10.91,10.866,10.866,0,0,1-10.815-10.91h0Zm4.026,13.19a14.571,14.571,0,0,0,13.66-.04c3.749,2.17,18.487,12.32,17.807,37.05a9.038,9.038,0,0,0-7.577.15,60.933,60.933,0,0,0-4.477-22.38,1.982,1.982,0,0,0-1.575-1.19,1.962,1.962,0,0,0-1.809.78,1.993,1.993,0,0,0-.23,1.97c0.055,0.13,5.376,12.87,3.9,23.89a33.016,33.016,0,0,1-8.924,5.39,12.3,12.3,0,0,0-1.142.49c-0.756-11.46-5.5-17.69-8.393-20.47a13.948,13.948,0,0,0,1.931-12.39,13.8,13.8,0,0,0-8.781-8.88,32.721,32.721,0,0,1,5.613-4.37h0ZM753,1850.71a9.915,9.915,0,1,1-9.832,9.92,9.876,9.876,0,0,1,9.832-9.92h0Zm-27.532-20.82a10.816,10.816,0,1,1,10.816,10.91,10.868,10.868,0,0,1-10.816-10.91h0Zm4.015,13.18a14.576,14.576,0,0,0,13.658-.02,32.36,32.36,0,0,1,5.631,4.37,13.793,13.793,0,0,0-8.852,8.87,13.936,13.936,0,0,0,1.918,12.43c-2.9,2.77-7.639,9.01-8.395,20.47a12.165,12.165,0,0,0-1.141-.49,33,33,0,0,1-8.923-5.39c-1.475-11,3.842-23.76,3.9-23.89a1.982,1.982,0,0,0-1.036-2.59,1.959,1.959,0,0,0-2.578,1.03,60.954,60.954,0,0,0-4.478,22.38,8.973,8.973,0,0,0-7.45-.16c-0.672-24.6,13.911-34.77,17.749-37.01h0Zm-20.154,53.37a17.19,17.19,0,0,1-3.471-5.05l-7.707-17.09a2.35,2.35,0,0,1,.163-2.26,2.307,2.307,0,0,1,1.964-1.08,2.333,2.333,0,0,1,2.149,1.43l4.4,10.35a23.447,23.447,0,0,0,4.959,7.39l8.984,9.05a1.968,1.968,0,0,0,1.9.52,1.99,1.99,0,0,0,.882-3.32l-8.984-9.06a19.541,19.541,0,0,1-2.423-2.98,5.082,5.082,0,0,1,6.368.11c0.566,0.48,1.118.93,1.664,1.37a1.763,1.763,0,0,0,.271.22,37.338,37.338,0,0,0,10.613,6.42,10.31,10.31,0,0,1,4.728,3.54,16.9,16.9,0,0,1,3.448,10.51v3.69H722.971Zm12.206,33.59v-15.86h21.633l0,15.86H721.533Zm37.912-17.85H746.551a3.907,3.907,0,0,0-3.385-1.98v-3.69c0-.63-0.028-1.25-0.078-1.87a2.073,2.073,0,0,0,.078-0.39c0-.12.062-11.96,5.451-18.57a1.987,1.987,0,0,0-1.195-3.22,1.97,1.97,0,0,0-1.843.7,29.275,29.275,0,0,0-5.351,12.38,18.413,18.413,0,0,0-1.374-2.02,17.289,17.289,0,0,0-1.572-1.72c0.149-11.79,4.85-17.87,7.287-20.23a13.582,13.582,0,0,0,16.859,0c2.435,2.36,7.137,8.44,7.285,20.23a17.536,17.536,0,0,0-1.572,1.72,18.546,18.546,0,0,0-1.373,2.02,29.275,29.275,0,0,0-5.351-12.38,1.963,1.963,0,0,0-2.766-.27,2,2,0,0,0-.273,2.79c5.374,6.59,5.453,18.45,5.453,18.57a2,2,0,0,0,.078.39c-0.05.62-.078,1.24-0.078,1.87v3.69a3.906,3.906,0,0,0-3.386,1.98h0Zm25.017,17.85H762.831v-15.86h21.631v15.86Zm23.384-55.73-7.707,17.09a17.171,17.171,0,0,1-3.471,5.05l-13.643,13.76H766.763v-3.69a16.9,16.9,0,0,1,3.448-10.51,10.31,10.31,0,0,1,4.728-3.54,37.316,37.316,0,0,0,10.614-6.42,1.558,1.558,0,0,0,.269-0.21c0.546-.45,1.1-0.9,1.665-1.38a5.076,5.076,0,0,1,6.382-.12,19.7,19.7,0,0,1-2.436,2.99l-8.985,9.06a1.99,1.99,0,0,0,.883,3.32,1.966,1.966,0,0,0,1.9-.52l8.985-9.05a23.48,23.48,0,0,0,4.959-7.39l4.4-10.35a2.327,2.327,0,0,1,4.112-.35,2.392,2.392,0,0,1,.162,2.26h0Zm0,0" transform="translate(-694 -1815)"/>
</svg>
