<svg xmlns="http://www.w3.org/2000/svg" width="113" height="113" viewBox="0 0 113 113">
  <defs>
    <style>
      .cls-1 {
        fill-rule: evenodd;
      }
    </style>
  </defs>
  <path id="opcoes-icon" class="cls-1" d="M1207.34,1835.99l-22.82-17.64a1.672,1.672,0,0,0-2.7,1.33v8.48a50.378,50.378,0,0,0-39.31,35.39,49.947,49.947,0,0,0-21.33-10.6v-7.46a1.658,1.658,0,0,0-.94-1.5,1.675,1.675,0,0,0-1.76.18l-10.38,8.02a1.675,1.675,0,1,0,2.05,2.65l7.67-5.93v5.41a1.671,1.671,0,0,0,1.36,1.64,46.7,46.7,0,0,1,22.42,11.25,50.618,50.618,0,0,0-1.09,10.44v9.7a33.348,33.348,0,0,0-3.4-5.57,34.041,34.041,0,0,0-17.12-12.03,1.693,1.693,0,0,0-2.17,1.6v6l-18.39-14.22,4.89-3.78a1.675,1.675,0,1,0-2.05-2.65l-6.61,5.1a1.686,1.686,0,0,0,0,2.66l22.82,17.63a1.675,1.675,0,0,0,2.7-1.32v-7.05a30.768,30.768,0,0,1,13.25,10.08,30.11,30.11,0,0,1,6.09,18.23v27.29a1.675,1.675,0,0,0,1.67,1.68h16.54a1.677,1.677,0,0,0,1.68-1.68v-18.7a1.675,1.675,0,1,0-3.35,0v17.02h-13.19v-49.99a47.3,47.3,0,0,1,1.21-10.64,47.008,47.008,0,0,1,38.66-35.76,1.679,1.679,0,0,0,1.43-1.66v-6.49l18.4,14.21-18.4,14.22v-5.11a1.674,1.674,0,0,0-2.06-1.63,33.787,33.787,0,0,0-26.05,32.86v26.26a1.675,1.675,0,1,0,3.35,0v-26.26a30.474,30.474,0,0,1,21.41-29.03v6.33a1.672,1.672,0,0,0,2.7,1.33l22.82-17.64a1.687,1.687,0,0,0,.65-1.33,1.653,1.653,0,0,0-.65-1.32h0Zm0,0" transform="translate(-1095 -1818)"/>
</svg>
